<svg id="SvgjsSvg1001" width="288" height="288" xmlns="http://www.w3.org/2000/svg" version="1.1" xmlns:xlink="http://www.w3.org/1999/xlink" xmlns:svgjs="http://svgjs.com/svgjs"><defs id="SvgjsDefs1002"></defs><g id="SvgjsG1008" transform="matrix(1,0,0,1,0,0)"><svg xmlns="http://www.w3.org/2000/svg" viewBox="0 0 256 256" width="288" height="288"><path fill="#ffffff" stroke-miterlimit="10" stroke-width="0" d="M 65.75 90 c 0.896 0 1.792 -0.342 2.475 -1.025 c 1.367 -1.366 1.367 -3.583 0 -4.949 L 29.2 45 L 68.225 5.975 c 1.367 -1.367 1.367 -3.583 0 -4.95 c -1.367 -1.366 -3.583 -1.366 -4.95 0 l -41.5 41.5 c -1.367 1.366 -1.367 3.583 0 4.949 l 41.5 41.5 C 63.958 89.658 64.854 90 65.75 90 z" transform="matrix(2.81 0 0 2.81 1.407 1.407)" class="color000 svgShape"></path></svg></g></svg>